<?xml version="1.0" encoding="utf-8"?>
<!-- Generator: Adobe Illustrator 17.0.0, SVG Export Plug-In . SVG Version: 6.00 Build 0)  -->
<!DOCTYPE svg PUBLIC "-//W3C//DTD SVG 1.1//EN" "http://www.w3.org/Graphics/SVG/1.1/DTD/svg11.dtd">
<svg version="1.1" id="图层_1" xmlns="http://www.w3.org/2000/svg" xmlns:xlink="http://www.w3.org/1999/xlink" x="0px" y="0px"
	 width="28.35px" height="28.35px" viewBox="0 0 28.35 28.35" enable-background="new 0 0 28.35 28.35" xml:space="preserve">
<path fill="#E79698" d="M14.051,28.101C6.303,28.101,0,21.798,0,14.051C0,6.303,6.303,0,14.051,0c7.747,0,14.05,6.303,14.05,14.051
	C28.101,21.798,21.798,28.101,14.051,28.101z"/>
<circle fill="#FCECEC" cx="14.051" cy="14.051" r="13.687"/>
<path fill="#DA5958" d="M14.051,27.737c4.558,0,8.593-2.23,11.08-5.656l-0.072-3.502c-2.647-1.668-7.619-2.021-8.308-1.893
	c-0.69,0.128-1.78,0.497-2.919,0.561s-1.7-0.417-1.7-0.417c-0.337-0.016-0.786-2.983-0.979-3.144
	c-0.192-0.16-0.529-0.032-0.609-0.128c-0.496-0.596-1.347-3.144-1.347-3.144c-2.053-0.385-5.838,3.464-5.838,3.464l-0.192,8.405
	l-0.001,0.06C5.665,25.621,9.61,27.737,14.051,27.737z"/>
<path fill="#FFFFFF" d="M10.616,18.348l-0.02,2.706h1.606l0.02-2.679C12.222,18.376,11.449,17.384,10.616,18.348z"/>
<path fill="#FFFFFF" d="M8.243,18.801l-0.019,2.45h1.541l0.019-2.424C9.784,18.826,9.042,17.929,8.243,18.801z"/>
<path fill="#FFFFFF" d="M6.061,19.275l-0.015,2.022h1.199l0.015-2.001C7.261,19.295,6.683,18.554,6.061,19.275z"/>
<path fill="#FFFFFF" d="M4.003,19.621l-0.015,2.022h1.199l0.015-2.001C5.203,19.642,4.625,18.901,4.003,19.621z"/>
<path fill="#FFFFFF" d="M13.356,22.098l-0.021,2.956h1.754l0.021-2.925C15.109,22.128,14.265,21.045,13.356,22.098z"/>
<path fill="#FFFFFF" d="M4.076,22.852l-0.004,0.561c0.328,0.35,0.675,0.682,1.039,0.996l0.011-1.539
	C5.122,22.87,4.619,22.224,4.076,22.852z"/>
<path fill="#FFFFFF" d="M8.16,15.427l-0.019,2.301h1.541l0.019-2.278C9.701,15.451,8.959,14.608,8.16,15.427z"/>
<path fill="#FFFFFF" d="M3.921,16.477l-0.017,1.927h1.361l0.017-1.907C5.282,16.497,4.626,15.791,3.921,16.477z"/>
<path fill="#FFFFFF" d="M5.977,15.617L5.96,17.927h1.371l0.017-2.287C7.348,15.64,6.687,14.794,5.977,15.617z"/>
<path fill="#FFFFFF" d="M10.637,22.365l-0.019,2.752h1.542l0.019-2.724C12.18,22.394,11.437,21.385,10.637,22.365z"/>
<path fill="#FFFFFF" d="M8.306,22.582l-0.019,2.6H9.83l0.019-2.573C9.848,22.609,9.105,21.656,8.306,22.582z"/>
<path fill="#FFFFFF" d="M5.924,25.185h0.171c-0.057-0.041-0.114-0.08-0.171-0.121L5.924,25.185z"/>
<path fill="#FFFFFF" d="M7.378,22.788c0,0-0.692-0.887-1.437-0.025l-0.017,2.3c0.056,0.041,0.114,0.081,0.171,0.121h1.265
	L7.378,22.788z"/>
<path fill="#FFFFFF" d="M17.986,18.284l-0.021,2.775h1.754l0.021-2.747C19.739,18.313,18.894,17.296,17.986,18.284z"/>
<path fill="#FFFFFF" d="M18.018,22.22l-0.021,3.122h1.754l0.021-3.09C19.771,22.252,18.927,21.108,18.018,22.22z"/>
<path fill="#FFFFFF" d="M20.614,18.709l-0.019,2.617h1.542l0.019-2.59C22.156,18.736,21.413,17.777,20.614,18.709z"/>
<path fill="#FFFFFF" d="M23.129,19.283l-0.016,2.285h1.321l0.016-2.261C24.449,19.306,23.814,18.469,23.129,19.283z"/>
<path fill="#FFFFFF" d="M24.369,23.037l0.005-0.532c0,0-0.7-0.641-1.453-0.018l-0.018,1.748h0.287
	C23.608,23.861,24.001,23.46,24.369,23.037z"/>
<path fill="#FFFFFF" d="M22.158,25.118l0-0.041c-0.019,0.014-0.039,0.027-0.058,0.041H22.158z"/>
<path fill="#FFFFFF" d="M20.598,22.37l-0.019,2.747H22.1c0.019-0.014,0.039-0.027,0.058-0.041l0.019-2.678
	C22.177,22.398,21.416,21.391,20.598,22.37z"/>
</svg>
