<?xml version="1.0" encoding="utf-8"?>
<!-- Generator: Adobe Illustrator 16.2.0, SVG Export Plug-In . SVG Version: 6.00 Build 0)  -->
<!DOCTYPE svg PUBLIC "-//W3C//DTD SVG 1.1//EN" "http://www.w3.org/Graphics/SVG/1.1/DTD/svg11.dtd">
<svg version="1.1" id="图层_2" xmlns="http://www.w3.org/2000/svg" xmlns:xlink="http://www.w3.org/1999/xlink" x="0px" y="0px"
	 width="57.065px" height="57.065px" viewBox="0 0 57.065 57.065" enable-background="new 0 0 57.065 57.065" xml:space="preserve">
<g>
	<g>
		<path fill="#f06305" d="M46.081,57.065H10.985C4.928,57.065,0,52.137,0,46.08V10.986C0,4.928,4.928,0,10.985,0h35.096
			c6.057,0,10.984,4.928,10.984,10.986V46.08C57.065,52.137,52.138,57.065,46.081,57.065z M10.985,3C6.582,3,3,6.583,3,10.986V46.08
			c0,4.403,3.582,7.985,7.985,7.985h35.096c4.402,0,7.984-3.582,7.984-7.985V10.986C54.065,6.583,50.483,3,46.081,3H10.985z"/>
	</g>
	<g>
		<g>
			<g>
				<path fill="#f06305" d="M27.765,24.573c-0.384,0-0.768-0.146-1.061-0.439l-7.094-7.092c-0.586-0.585-0.586-1.535,0-2.121
					s1.535-0.586,2.121,0l7.094,7.092c0.586,0.585,0.586,1.535,0,2.121C28.532,24.426,28.148,24.573,27.765,24.573z"/>
			</g>
			<g>
				<path fill="#f06305" d="M29.302,24.573c-0.384,0-0.768-0.146-1.061-0.439c-0.586-0.585-0.586-1.535,0-2.121l7.092-7.093
					c0.586-0.586,1.535-0.586,2.121,0c0.586,0.585,0.586,1.535,0,2.121l-7.092,7.093C30.069,24.426,29.686,24.573,29.302,24.573z"/>
			</g>
		</g>
		<g>
			<path fill="#f06305" d="M37.78,27.929H19.286c-0.828,0-1.5-0.671-1.5-1.5s0.672-1.5,1.5-1.5H37.78c0.828,0,1.5,0.671,1.5,1.5
				S38.608,27.929,37.78,27.929z"/>
		</g>
		<g>
			<path fill="#f06305" d="M37.78,36.558H19.286c-0.828,0-1.5-0.671-1.5-1.5s0.672-1.5,1.5-1.5H37.78c0.828,0,1.5,0.671,1.5,1.5
				S38.608,36.558,37.78,36.558z"/>
		</g>
		<g>
			<path fill="#f06305" d="M28.533,43.745c-0.828,0-1.5-0.671-1.5-1.5V26.674c0-0.829,0.672-1.5,1.5-1.5s1.5,0.671,1.5,1.5v15.571
				C30.033,43.074,29.361,43.745,28.533,43.745z"/>
		</g>
	</g>
</g>
</svg>
