<?xml version="1.0" encoding="utf-8"?>
<!-- Generator: Adobe Illustrator 17.0.0, SVG Export Plug-In . SVG Version: 6.00 Build 0)  -->
<!DOCTYPE svg PUBLIC "-//W3C//DTD SVG 1.1//EN" "http://www.w3.org/Graphics/SVG/1.1/DTD/svg11.dtd">
<svg version="1.1" id="图层_1" xmlns="http://www.w3.org/2000/svg" xmlns:xlink="http://www.w3.org/1999/xlink" x="0px" y="0px"
	 width="28.35px" height="28.35px" viewBox="0 0 28.35 28.35" enable-background="new 0 0 28.35 28.35" xml:space="preserve">
<path fill="#6EBDBC" d="M14.285,28.23c-7.76,0-14.074-6.313-14.074-14.073c0-7.76,6.313-14.074,14.074-14.074
	s14.073,6.313,14.073,14.074C28.358,21.916,22.045,28.23,14.285,28.23z"/>
<circle fill="#E5F3F1" cx="14.285" cy="14.156" r="13.711"/>
<path fill="#279B9A" d="M14.285,27.995c4.81,0,9.045-2.455,11.525-6.178h-3.63v-1.043h-2.342V20.22h-0.83v-2.598h0.277v-0.49h-0.298
	v-0.298h-0.447v-1.98h-0.681c0,0-0.234-2.555-2.15-3.109v-0.575h-0.255v-0.298h-0.298V9.681h0.319v-0.49h-0.298h-0.319V7.02
	l-0.138-0.138l-0.039,0.004L14.54,7.024v2.172h-0.319h-0.298v0.49h0.319v1.192h-0.298v0.298h-0.255v0.575
	c-1.916,0.554-2.15,3.109-2.15,3.109h-0.681v1.98H10.41v0.298h-0.298v0.49h0.277v2.598h-0.83v0.554H7.216v1.043H2.762
	C5.243,25.542,9.477,27.995,14.285,27.995z"/>
<rect x="14.178" y="23.503" fill="#FFFFFF" width="0.809" height="2.214"/>
<rect x="15.69" y="22.438" fill="#FFFFFF" width="0.724" height="3.215"/>
<rect x="17.116" y="22.438" fill="#FFFFFF" width="0.724" height="3.215"/>
<rect x="18.734" y="22.438" fill="#FFFFFF" width="0.724" height="3.215"/>
<rect x="20.352" y="22.438" fill="#FFFFFF" width="0.724" height="3.215"/>
<rect x="21.821" y="23.013" fill="#FFFFFF" width="0.83" height="1.171"/>
<path fill="#FFFFFF" d="M24.27,22.992v0.741c0.23-0.239,0.453-0.485,0.665-0.741H24.27z"/>
<path fill="#FFFFFF" d="M21.885,24.844v0.875c0.383-0.252,0.752-0.522,1.107-0.81v-0.065H21.885z"/>
<rect x="14.348" y="17.882" fill="#FFFFFF" width="0.468" height="2.299"/>
<rect x="15.626" y="17.861" fill="#FFFFFF" width="0.468" height="2.299"/>
<rect x="16.754" y="17.882" fill="#FFFFFF" width="0.468" height="2.299"/>
<rect x="17.904" y="17.882" fill="#FFFFFF" width="0.468" height="2.299"/>
<rect x="14.37" y="15.37" fill="#FFFFFF" width="0.554" height="1.597"/>
<rect x="15.307" y="15.37" fill="#FFFFFF" width="0.554" height="1.597"/>
<rect x="16.243" y="15.37" fill="#FFFFFF" width="0.554" height="1.597"/>
<rect x="17.18" y="15.37" fill="#FFFFFF" width="0.554" height="1.597"/>
<rect x="12.762" y="22.454" fill="#FFFFFF" width="0.724" height="3.215"/>
<rect x="11.336" y="22.454" fill="#FFFFFF" width="0.724" height="3.215"/>
<rect x="9.718" y="22.454" fill="#FFFFFF" width="0.724" height="3.215"/>
<rect x="8.1" y="22.454" fill="#FFFFFF" width="0.724" height="3.215"/>
<rect x="6.364" y="22.934" fill="#FFFFFF" width="0.83" height="1.171"/>
<path fill="#FFFFFF" d="M4.714,22.928H4.033v0.524c0.081,0.09,0.167,0.176,0.25,0.263h0.431L4.714,22.928L4.714,22.928z"/>
<path fill="#FFFFFF" d="M6.183,24.86v0.513c0.357,0.258,0.726,0.499,1.107,0.723V24.86L6.183,24.86L6.183,24.86z"/>
<rect x="13.082" y="17.877" fill="#FFFFFF" width="0.468" height="2.299"/>
<rect x="11.953" y="17.898" fill="#FFFFFF" width="0.468" height="2.299"/>
<rect x="10.803" y="17.898" fill="#FFFFFF" width="0.468" height="2.299"/>
<rect x="13.316" y="15.386" fill="#FFFFFF" width="0.554" height="1.597"/>
<rect x="12.379" y="15.386" fill="#FFFFFF" width="0.554" height="1.597"/>
<rect x="11.442" y="15.386" fill="#FFFFFF" width="0.554" height="1.597"/>
</svg>
