<?xml version="1.0" encoding="utf-8"?>
<!-- Generator: Adobe Illustrator 17.0.0, SVG Export Plug-In . SVG Version: 6.00 Build 0)  -->
<!DOCTYPE svg PUBLIC "-//W3C//DTD SVG 1.1//EN" "http://www.w3.org/Graphics/SVG/1.1/DTD/svg11.dtd">
<svg version="1.1" id="图层_1" xmlns="http://www.w3.org/2000/svg" xmlns:xlink="http://www.w3.org/1999/xlink" x="0px" y="0px"
	 width="28.35px" height="28.35px" viewBox="0 0 28.35 28.35" enable-background="new 0 0 28.35 28.35" xml:space="preserve">
<path fill="#E57A36" d="M14.308,28.35c-7.743,0-14.042-6.299-14.042-14.042S6.565,0.265,14.308,0.265S28.35,6.565,28.35,14.308
	C28.35,22.051,22.051,28.35,14.308,28.35z"/>
<circle fill="#FEF0E8" cx="14.308" cy="14.308" r="13.684"/>
<path fill="#E57A36" d="M21.676,21.297l3.179-1.789v-0.99c0,0-1.347,1.095-2.4,1.2c-1.053,0.105-1.579,0.042-1.579,0.042
	s-1.432-0.484-1.6-0.737v-1.389h1.326c0,0,2.884-1.495,3.032-1.937v-0.8l-2.337,1.095l-1.558-0.063c0,0-1.242-0.316-1.432-0.589
	v-1.347h1.074l2.632-1.558v-0.779h-0.232v0.232c0,0-1.053,0.737-1.789,0.674c-0.737-0.063-1.432-0.042-1.432-0.042
	s-2.4-0.779-3.916-1.874v-0.568l0.137-0.137V9.571H14.56V8.603h-0.253h-0.253v0.968h-0.221v0.368l0.137,0.137v0.568
	c-1.516,1.095-3.916,1.874-3.916,1.874s-0.695-0.021-1.432,0.042c-0.737,0.063-1.789-0.674-1.789-0.674v-0.232H6.602v0.779
	l2.632,1.558h1.074v1.347c-0.189,0.274-1.432,0.589-1.432,0.589l-1.558,0.063l-2.337-1.095v0.8c0.147,0.442,3.032,1.937,3.032,1.937
	h1.326v1.389c-0.169,0.253-1.6,0.737-1.6,0.737s-0.526,0.063-1.579-0.042c-1.053-0.105-2.4-1.2-2.4-1.2v0.99l3.179,1.789H8.96v5.61
	c1.643,0.698,3.45,1.085,5.347,1.085s3.705-0.387,5.347-1.085v-5.61L21.676,21.297L21.676,21.297z"/>
<rect x="12.308" y="13.845" fill="#FFFFFF" width="4.105" height="1.41"/>
<rect x="11.466" y="17.55" fill="#FFFFFF" width="5.747" height="1.41"/>
<rect x="17.044" y="13.824" fill="#FFFFFF" width="0.737" height="1.41"/>
<rect x="10.939" y="13.824" fill="#FFFFFF" width="0.737" height="1.41"/>
<rect x="17.781" y="17.571" fill="#FFFFFF" width="0.737" height="1.41"/>
<rect x="10.202" y="17.571" fill="#FFFFFF" width="0.737" height="1.41"/>
<rect x="13.05" y="21.424" fill="#FFFFFF" width="0.332" height="6.458"/>
<rect x="15.387" y="21.424" fill="#FFFFFF" width="0.332" height="6.458"/>
<rect x="13.255" y="22.221" fill="#FFFFFF" width="2.321" height="0.3"/>
<rect x="13.255" y="21.432" fill="#FFFFFF" width="2.321" height="0.3"/>
<rect x="13.255" y="23.003" fill="#FFFFFF" width="2.321" height="0.3"/>
<rect x="13.255" y="23.784" fill="#FFFFFF" width="2.321" height="0.3"/>
<rect x="13.255" y="24.566" fill="#FFFFFF" width="2.321" height="0.3"/>
<rect x="13.255" y="25.347" fill="#FFFFFF" width="2.321" height="0.3"/>
<rect x="13.255" y="26.129" fill="#FFFFFF" width="2.321" height="0.3"/>
<rect x="13.255" y="26.91" fill="#FFFFFF" width="2.321" height="0.3"/>
</svg>
