<?xml version="1.0" encoding="utf-8"?>
<!-- Generator: Adobe Illustrator 17.0.0, SVG Export Plug-In . SVG Version: 6.00 Build 0)  -->
<!DOCTYPE svg PUBLIC "-//W3C//DTD SVG 1.1//EN" "http://www.w3.org/Graphics/SVG/1.1/DTD/svg11.dtd">
<svg version="1.1" id="图层_1" xmlns="http://www.w3.org/2000/svg" xmlns:xlink="http://www.w3.org/1999/xlink" x="0px" y="0px"
	 width="28.35px" height="28.35px" viewBox="0 0 28.35 28.35" enable-background="new 0 0 28.35 28.35" xml:space="preserve">
<g>
	<path fill="#379BC9" d="M14.216,28.35c-7.793,0-14.134-6.34-14.134-14.134S6.423,0.082,14.216,0.082
		c7.794,0,14.134,6.34,14.134,14.134S22.01,28.35,14.216,28.35z"/>
	<circle fill="#E6F4FA" cx="14.216" cy="14.216" r="13.77"/>
	<path fill="#379BC9" d="M14.216,27.986c6.313,0,11.63-4.25,13.256-10.043c-1.987,0.288-3.795,2.064-3.795,2.064l-1.058-0.882
		c0.289-0.337,1.572-3.207,1.572-3.207c-4.811-1.123-7.954,1.374-7.954,1.374c-3.977-6.586-9.75-6.8-9.75-6.8
		c0.77,1.283,1.796,5.474,1.796,5.474c-2.266-2.523-5.517-2.309-5.517-2.309c0.855,2.309,0.77,3.678,0.77,3.678
		c-0.562-1.058-2.274-1.579-3.022-1.761C1.195,22.541,7.069,27.986,14.216,27.986z"/>
	<path fill="#FFFFFF" d="M3.214,14.234c0,0.257,1.796,5.501,1.475,7.201h0.754c0,0,0.112-4.314-2.037-7.425
		C3.406,14.01,3.214,13.978,3.214,14.234z"/>
	<path fill="#FFFFFF" d="M7.127,11.251c2.79,5.645,2.438,9.333,2.726,10.039c0.289,0.706,0.77,0.577,0.77,0.577
		C11.2,15.1,7.405,10.877,7.405,10.877C7.009,10.776,7.127,11.251,7.127,11.251z"/>
	<path fill="#FFFFFF" d="M23.164,16.079l-2.887,5.132c0,0-0.035,0.707,0.609,0.385c0.192-0.096,2.694-5.132,2.726-5.276
		S23.26,15.95,23.164,16.079z"/>
	<path fill="#FFFFFF" d="M21.32,23.199l0.722,0.032c0,0,0.064-1.299-0.337-2.486C21.705,20.745,21.304,22.381,21.32,23.199z"/>
</g>
</svg>
