<?xml version="1.0" encoding="utf-8"?>
<!-- Generator: Adobe Illustrator 16.2.0, SVG Export Plug-In . SVG Version: 6.00 Build 0)  -->
<!DOCTYPE svg PUBLIC "-//W3C//DTD SVG 1.1//EN" "http://www.w3.org/Graphics/SVG/1.1/DTD/svg11.dtd">
<svg version="1.1" id="图层_2" xmlns="http://www.w3.org/2000/svg" xmlns:xlink="http://www.w3.org/1999/xlink" x="0px" y="0px"
	 width="73.471px" height="63.845px" viewBox="0 0 73.471 63.845" enable-background="new 0 0 73.471 63.845" xml:space="preserve">
<g>
	<g>
		<path fill="#333333" d="M42.622,63.845H20.235c-6.341,0-11.5-5.159-11.5-11.5V34.171H1.5c-0.624,0-1.182-0.386-1.403-0.969
			c-0.221-0.583-0.058-1.242,0.409-1.655L35.742,0.376c0.567-0.502,1.42-0.502,1.987,0l35.235,31.171
			c0.467,0.413,0.63,1.072,0.409,1.655c-0.221,0.583-0.779,0.969-1.403,0.969h-7.235v18.174c0,3.977-2.011,7.618-5.381,9.738
			c-0.702,0.44-1.627,0.23-2.068-0.471c-0.441-0.701-0.23-1.627,0.471-2.068c2.491-1.568,3.979-4.259,3.979-7.199V32.671
			c0-0.829,0.671-1.5,1.5-1.5h4.776L36.735,3.503L5.459,31.171h4.776c0.829,0,1.5,0.671,1.5,1.5v19.674c0,4.687,3.813,8.5,8.5,8.5
			h22.387c0.829,0,1.5,0.671,1.5,1.5S43.451,63.845,42.622,63.845z"/>
	</g>
	<g>
		<path fill="#333333" d="M42.578,63.845c-0.829,0-1.5-0.671-1.5-1.5s0.671-1.5,1.5-1.5c1.93,0,3.5-1.57,3.5-3.5V42.839
			c0-1.93-1.57-3.5-3.5-3.5H30.893c-1.93,0-3.5,1.57-3.5,3.5v9.332c0,0.829-0.671,1.5-1.5,1.5s-1.5-0.671-1.5-1.5v-9.332
			c0-3.584,2.916-6.5,6.5-6.5h11.686c3.584,0,6.5,2.916,6.5,6.5v14.506C49.078,60.929,46.162,63.845,42.578,63.845z"/>
	</g>
</g>
</svg>
