<?xml version="1.0" encoding="utf-8"?>
<!-- Generator: Adobe Illustrator 16.2.0, SVG Export Plug-In . SVG Version: 6.00 Build 0)  -->
<!DOCTYPE svg PUBLIC "-//W3C//DTD SVG 1.1//EN" "http://www.w3.org/Graphics/SVG/1.1/DTD/svg11.dtd">
<svg version="1.1" id="图层_2" xmlns="http://www.w3.org/2000/svg" xmlns:xlink="http://www.w3.org/1999/xlink" x="0px" y="0px"
	 width="71.433px" height="63.315px" viewBox="0 0 71.433 63.315" enable-background="new 0 0 71.433 63.315" xml:space="preserve">
<g>
	<g>
		<path fill="#f06305" d="M35.717,41.367c-1.216,0-2.382-0.278-3.284-0.784L1.823,23.409C0.666,22.761,0,21.763,0,20.671
			s0.665-2.09,1.824-2.74L32.433,0.759c1.8-1.012,4.766-1.013,6.568,0L69.61,17.931c1.159,0.65,1.823,1.649,1.822,2.741
			c0,1.091-0.665,2.089-1.824,2.737L39.001,40.583C38.1,41.088,36.934,41.367,35.717,41.367z M3.104,20.67
			c0.047,0.037,0.108,0.078,0.187,0.122l30.611,17.175c0.906,0.509,2.725,0.51,3.631,0l30.609-17.174
			c0.079-0.044,0.141-0.086,0.188-0.123c-0.048-0.037-0.109-0.078-0.188-0.123L37.532,3.376c-0.908-0.512-2.724-0.51-3.63-0.001
			L3.292,20.547C3.213,20.592,3.15,20.633,3.104,20.67z"/>
	</g>
	<g>
		<path fill="#f06305" d="M35.726,63.315c-13.725,0-24.177-4.476-24.57-10.458c-0.021-0.1-0.033-0.203-0.033-0.309V29.735
			c0-0.829,0.672-1.5,1.5-1.5s1.5,0.671,1.5,1.5v22.563c0.014,0.077,0.021,0.155,0.021,0.235c0.04,3.681,8.913,7.783,21.582,7.783
			s21.541-4.102,21.58-7.783c0-0.031,0.002-0.062,0.004-0.093V29.735c0-0.829,0.672-1.5,1.5-1.5s1.5,0.671,1.5,1.5v22.813
			c0,0.049-0.002,0.097-0.007,0.145C60.092,58.759,49.575,63.315,35.726,63.315z"/>
	</g>
	<g>
		<path fill="#f06305" d="M69.501,55.514c-0.828,0-1.5-0.671-1.5-1.5V30.196c0-0.829,0.672-1.5,1.5-1.5s1.5,0.671,1.5,1.5v23.817
			C71.001,54.843,70.329,55.514,69.501,55.514z"/>
	</g>
</g>
</svg>
