<?xml version="1.0" encoding="utf-8"?>
<!-- Generator: Adobe Illustrator 16.2.0, SVG Export Plug-In . SVG Version: 6.00 Build 0)  -->
<!DOCTYPE svg PUBLIC "-//W3C//DTD SVG 1.1//EN" "http://www.w3.org/Graphics/SVG/1.1/DTD/svg11.dtd">
<svg version="1.1" id="图层_2" xmlns="http://www.w3.org/2000/svg" xmlns:xlink="http://www.w3.org/1999/xlink" x="0px" y="0px"
	 width="57px" height="55.308px" viewBox="0 0 57 55.308" enable-background="new 0 0 57 55.308" xml:space="preserve">
<g>
	<path fill="#333333" d="M55.5,55.308c-0.828,0-1.5-0.672-1.5-1.5c0-4.799-9.142-17.201-14.385-19.516
		c-0.469-0.206-0.799-0.638-0.877-1.143c-0.078-0.506,0.106-1.017,0.49-1.354c3.552-3.131,5.589-7.636,5.589-12.359
		C44.817,10.373,37.497,3,28.5,3s-16.317,7.373-16.317,16.436c0,4.726,2.036,9.229,5.587,12.359c0.384,0.338,0.568,0.849,0.49,1.354
		c-0.078,0.506-0.408,0.937-0.876,1.144C12.141,36.608,3,49.011,3,53.808c0,0.828-0.672,1.5-1.5,1.5S0,54.636,0,53.808
		c0-5.89,8.288-17.124,14.313-21.205c-3.282-3.575-5.131-8.271-5.131-13.167C9.183,8.719,17.849,0,28.5,0
		s19.317,8.719,19.317,19.436c0,4.896-1.85,9.591-5.133,13.167C48.712,36.683,57,47.917,57,53.808
		C57,54.636,56.328,55.308,55.5,55.308z"/>
</g>
</svg>
