<?xml version="1.0" encoding="utf-8"?>
<!-- Generator: Adobe Illustrator 16.2.0, SVG Export Plug-In . SVG Version: 6.00 Build 0)  -->
<!DOCTYPE svg PUBLIC "-//W3C//DTD SVG 1.1//EN" "http://www.w3.org/Graphics/SVG/1.1/DTD/svg11.dtd">
<svg version="1.1" id="图层_2" xmlns="http://www.w3.org/2000/svg" xmlns:xlink="http://www.w3.org/1999/xlink" x="0px" y="0px"
	 width="57.065px" height="57.065px" viewBox="0 0 57.065 57.065" enable-background="new 0 0 57.065 57.065" xml:space="preserve">
<g>
	<g>
		<path fill="#8C8C8C" d="M46.081,57.065H10.986C4.928,57.065,0,52.137,0,46.08V10.986C0,4.928,4.928,0,10.986,0h35.095
			c6.057,0,10.985,4.928,10.985,10.986v16.973c0,0.829-0.671,1.5-1.5,1.5s-1.5-0.671-1.5-1.5V10.986C54.065,6.583,50.483,3,46.081,3
			H10.986C6.583,3,3,6.583,3,10.986V46.08c0,4.403,3.583,7.985,7.986,7.985h35.095c4.403,0,7.985-3.582,7.985-7.985v-4.481
			c0-0.829,0.671-1.5,1.5-1.5s1.5,0.671,1.5,1.5v4.481C57.065,52.137,52.138,57.065,46.081,57.065z"/>
	</g>
	<g>
		<path fill="#8C8C8C" d="M55.286,30.033L55.286,30.033l-29.145-0.001c-0.829,0-1.5-0.671-1.5-1.5s0.672-1.5,1.5-1.5l0,0
			l29.145,0.001c0.829,0,1.5,0.671,1.5,1.5S56.114,30.033,55.286,30.033z"/>
	</g>
	<g>
		<g>
			<path fill="#8C8C8C" d="M21.658,30.035c-0.384,0-0.768-0.146-1.061-0.439c-0.586-0.585-0.586-1.536,0-2.121l13.751-13.751
				c0.586-0.586,1.535-0.586,2.121,0c0.586,0.585,0.586,1.536,0,2.121L22.719,29.596C22.426,29.889,22.042,30.035,21.658,30.035z"/>
		</g>
		<g>
			<path fill="#8C8C8C" d="M35.409,43.78c-0.384,0-0.768-0.146-1.061-0.439L20.597,29.59c-0.586-0.585-0.586-1.535,0-2.121
				c0.585-0.586,1.535-0.586,2.121,0l13.752,13.75c0.586,0.585,0.586,1.535,0,2.121C36.177,43.633,35.793,43.78,35.409,43.78z"/>
		</g>
	</g>
</g>
</svg>
