<?xml version="1.0" encoding="utf-8"?>
<!-- Generator: Adobe Illustrator 16.2.0, SVG Export Plug-In . SVG Version: 6.00 Build 0)  -->
<!DOCTYPE svg PUBLIC "-//W3C//DTD SVG 1.1//EN" "http://www.w3.org/Graphics/SVG/1.1/DTD/svg11.dtd">
<svg version="1.1" id="图层_2" xmlns="http://www.w3.org/2000/svg" xmlns:xlink="http://www.w3.org/1999/xlink" x="0px" y="0px"
	 width="67.606px" height="68.402px" viewBox="0 0 67.606 68.402" enable-background="new 0 0 67.606 68.402" xml:space="preserve">
<g>
	<g>
		<path fill="#333333" d="M33.569,65.205c-13.379,0-24.923-16.143-26.306-30.577c-0.079-0.825,0.525-1.557,1.35-1.636
			c0.822-0.089,1.558,0.525,1.636,1.35c1.26,13.152,11.5,27.863,23.319,27.863c12.404,0,23.441-16.971,23.441-30.348
			c0-0.829,0.671-1.5,1.5-1.5s1.5,0.671,1.5,1.5C60.011,46.868,47.81,65.205,33.569,65.205z"/>
	</g>
	<g>
		<path fill="#333333" d="M35.23,50.366h-3.322c-0.829,0-1.5-0.671-1.5-1.5s0.671-1.5,1.5-1.5h3.322c0.829,0,1.5,0.671,1.5,1.5
			S36.059,50.366,35.23,50.366z"/>
	</g>
	<g>
		<path fill="#333333" d="M14.174,36.811c-2.725,0-4.439-0.268-4.683-0.309c-0.817-0.136-1.369-0.91-1.232-1.727
			c0.137-0.816,0.912-1.365,1.725-1.233l0,0c0.207,0.032,21.069,3.211,37.869-15.3c0.556-0.614,1.504-0.66,2.119-0.103
			c0.613,0.557,0.659,1.505,0.103,2.119C36.907,34.768,21.695,36.811,14.174,36.811z"/>
	</g>
	<g>
		<path fill="#333333" d="M23.648,67.429c-0.107,0-0.215-0.012-0.324-0.036c-9.019-1.984-16.799-4.152-20.665-10.598
			c-3.784-6.309-3.539-16.001,0.793-31.429C6.549,14.341,12.217,6.792,20.301,2.932C34.18-3.699,49.999,2.952,50.666,3.238
			c0.129,0.047,19.194,7.563,16.719,36.024c-0.016,0.213-1.942,23.198-20.651,27.972c-0.803,0.205-1.62-0.28-1.825-1.083
			c-0.205-0.803,0.28-1.62,1.083-1.825c16.644-4.247,18.388-25.096,18.404-25.307c2.281-26.239-14.679-32.936-14.85-33
			C49.331,5.93,34.213-0.402,21.576,5.647C14.316,9.122,9.19,16.029,6.341,26.178C2.306,40.547,1.953,49.785,5.232,55.252
			c3.256,5.43,10.112,7.313,18.737,9.211c0.809,0.178,1.321,0.978,1.143,1.787C24.958,66.951,24.337,67.429,23.648,67.429z"/>
	</g>
	<g>
		<path fill="#333333" d="M44.937,68.402c-0.829,0-1.5-0.671-1.5-1.5v-7.119c0-0.829,0.671-1.5,1.5-1.5s1.5,0.671,1.5,1.5v7.119
			C46.437,67.73,45.765,68.402,44.937,68.402z"/>
	</g>
	<g>
		<path fill="#333333" d="M25.05,68.402c-0.829,0-1.5-0.671-1.5-1.5v-4.898c0-0.829,0.671-1.5,1.5-1.5s1.5,0.671,1.5,1.5v4.898
			C26.55,67.73,25.878,68.402,25.05,68.402z"/>
	</g>
	<g>
		<path fill="#333333" d="M6.065,34.2c-0.681,0-1.298-0.468-1.459-1.16c-0.188-0.807,0.313-1.613,1.12-1.801
			c0.155-0.036,15.602-3.713,24.526-12.047c0.605-0.566,1.555-0.532,2.12,0.072c0.565,0.605,0.533,1.555-0.072,2.12
			c-9.519,8.89-25.23,12.623-25.894,12.777C6.292,34.188,6.178,34.2,6.065,34.2z"/>
	</g>
	<g>
		<path fill="#333333" d="M57.601,33.555c-0.182,0-0.367-0.033-0.546-0.104c-7.993-3.128-9.517-13.553-9.578-13.995
			c-0.113-0.821,0.46-1.578,1.281-1.691c0.823-0.111,1.577,0.459,1.691,1.279c0.015,0.103,1.359,9.131,7.7,11.613
			c0.771,0.302,1.152,1.172,0.85,1.944C58.767,33.193,58.201,33.555,57.601,33.555z"/>
	</g>
</g>
</svg>
